<svg width="293" height="31" viewBox="0 0 293 31" fill="none" xmlns="http://www.w3.org/2000/svg">
<path d="M57.1096 30.6796V11.9296L49.8196 25.8996H46.8396L39.5496 11.9296V30.6796H34.0596V2.34961H39.9496L48.3096 18.4696L56.7496 2.34961H62.5996V30.6796H57.1096Z" fill="#1D1D1B"/>
<path d="M72.4805 30.6796V2.34961H84.4605C85.7605 2.34961 86.9605 2.61961 88.0605 3.16961C89.1605 3.71961 90.1105 4.42961 90.9005 5.31961C91.7005 6.20961 92.3205 7.21961 92.7705 8.34961C93.2205 9.47961 93.4505 10.6196 93.4505 11.7596C93.4505 12.8996 93.2405 14.1196 92.8105 15.2496C92.3905 16.3796 91.7905 17.3796 91.0205 18.2596C90.2505 19.1396 89.3205 19.8396 88.2405 20.3696C87.1505 20.8996 85.9605 21.1696 84.6605 21.1696H77.9705V30.6696H72.4805V30.6796ZM77.9705 16.3596H84.3405C85.3505 16.3596 86.1905 15.9496 86.8705 15.1196C87.5505 14.2996 87.8805 13.1796 87.8805 11.7696C87.8805 11.0496 87.7705 10.4096 87.5605 9.82961C87.3505 9.2596 87.0705 8.76961 86.7305 8.36961C86.3805 7.96961 85.9805 7.6696 85.5205 7.4696C85.0505 7.2696 84.5805 7.16961 84.1105 7.16961H77.9805V16.3496L77.9705 16.3596Z" fill="#1D1D1B"/>
<path d="M118.05 9.76844C117.87 9.57844 117.53 9.32844 117.04 9.00844C116.55 8.68844 115.95 8.37844 115.25 8.06844C114.55 7.75844 113.79 7.50844 112.96 7.28844C112.14 7.07844 111.3 6.96844 110.45 6.96844C108.94 6.96844 107.81 7.24844 107.07 7.80844C106.32 8.36844 105.95 9.14844 105.95 10.1584C105.95 10.7484 106.09 11.2284 106.37 11.6184C106.65 12.0084 107.05 12.3484 107.58 12.6384C108.11 12.9284 108.78 13.1984 109.59 13.4384C110.4 13.6784 111.33 13.9284 112.4 14.1984C113.78 14.5684 115.03 14.9684 116.16 15.3984C117.29 15.8284 118.24 16.3584 119.03 16.9984C119.81 17.6384 120.42 18.4084 120.84 19.2884C121.26 20.1784 121.48 21.2784 121.48 22.5784C121.48 24.0984 121.19 25.3884 120.62 26.4684C120.05 27.5484 119.29 28.4184 118.33 29.0784C117.37 29.7384 116.26 30.2284 114.98 30.5384C113.71 30.8484 112.38 30.9984 111 30.9984C108.88 30.9984 106.78 30.6784 104.71 30.0384C102.64 29.3984 100.78 28.4984 99.1396 27.3284L101.57 22.5784C101.81 22.8184 102.24 23.1284 102.86 23.5184C103.48 23.9084 104.22 24.2884 105.07 24.6784C105.92 25.0684 106.86 25.3884 107.89 25.6584C108.93 25.9284 109.99 26.0584 111.08 26.0584C114.1 26.0584 115.61 25.0884 115.61 23.1484C115.61 22.5084 115.44 21.9784 115.09 21.5484C114.75 21.1284 114.26 20.7484 113.62 20.4284C112.98 20.1084 112.21 19.8184 111.31 19.5484C110.41 19.2784 109.4 19.0084 108.28 18.7084C106.93 18.3384 105.75 17.9284 104.76 17.4884C103.77 17.0484 102.94 16.5384 102.27 15.9584C101.61 15.3684 101.11 14.6784 100.78 13.8784C100.45 13.0784 100.28 12.1384 100.28 11.0484C100.28 9.61844 100.54 8.33844 101.07 7.21844C101.6 6.09844 102.34 5.16844 103.28 4.42844C104.22 3.67844 105.32 3.11844 106.57 2.72844C107.82 2.34844 109.16 2.14844 110.59 2.14844C112.58 2.14844 114.41 2.45844 116.08 3.08844C117.75 3.71844 119.21 4.44844 120.46 5.30844L118.03 9.77844L118.05 9.76844Z" fill="#1D1D1B"/>
<path d="M149.26 25.8496V30.6796H129.64V2.34961H148.91V7.1796H135.14V13.9996H147.04V18.4696H135.14V25.8496H149.27H149.26Z" fill="#1D1D1B"/>
<path d="M163.16 12.5294V30.6894H157.67V2.35938H161.93L176.66 20.9494V2.39938H182.15V30.6894H177.69L163.16 12.5294Z" fill="#1D1D1B"/>
<path d="M213.15 7.1796H204.15V30.6796H198.66V7.1796H189.62V2.34961H213.15V7.1796Z" fill="#1D1D1B"/>
<path d="M220.67 30.6796V2.34961H233.17C234.47 2.34961 235.67 2.61961 236.77 3.16961C237.87 3.71961 238.82 4.42961 239.62 5.31961C240.41 6.20961 241.04 7.21961 241.49 8.34961C241.94 9.47961 242.17 10.6196 242.17 11.7596C242.17 13.5996 241.71 15.2596 240.79 16.7696C239.88 18.2696 238.64 19.3596 237.07 20.0196L243.72 30.6696H237.51L231.58 21.1696H226.17V30.6696H220.68L220.67 30.6796ZM226.16 16.3596H233.05C233.55 16.3596 234.03 16.2396 234.46 15.9996C234.9 15.7596 235.28 15.4396 235.59 15.0196C235.91 14.6096 236.16 14.1196 236.35 13.5596C236.54 12.9996 236.63 12.3996 236.63 11.7596C236.63 11.1196 236.52 10.4796 236.31 9.91961C236.1 9.35961 235.81 8.87961 235.45 8.45961C235.09 8.04961 234.68 7.7296 234.21 7.4996C233.75 7.2696 233.28 7.15961 232.8 7.15961H226.15V16.3396L226.16 16.3596Z" fill="#1D1D1B"/>
<path d="M251.48 30.6806V2.39062H256.97V30.6806H251.48Z" fill="#1D1D1B"/>
<path d="M15.9596 2.34961H11.4996L7.63962 12.2996L12.7196 11.0996L13.7296 8.29961L17.6696 19.7496H9.66962L12.7296 11.0796L7.85962 11.7696L0.349609 30.6796H6.16962L8.74962 23.6196H18.6596L21.2496 30.6796H27.0596L15.9596 2.34961Z" fill="#1D1D1B"/>
<path d="M283.74 0L278.68 7.60001L283.01 13.63L292.55 0H283.74Z" fill="#1D1D1B"/>
<path d="M276.18 8.9586L272.4 3.05859H263.82L271.52 15.1486L261.07 30.4686H270L276.07 21.2886L282.13 30.4686H291.22L280.5 14.9786" fill="#D9B326"/>
</svg>
