<svg xmlns="http://www.w3.org/2000/svg" width="160" height="31.859" viewBox="0 0 160 31.859">
  <g id="w160" transform="translate(0 0.001)">
    <path id="path" d="M87.926,12.651v3.97a4.278,4.278,0,0,0,4.235,4.3h8.933V18.275H92.624a.382.382,0,0,1-.4-.4V11.658c0-.265.133-.464.4-.464h8.469V8.416H92.161a4.18,4.18,0,0,0-4.235,4.235" transform="translate(-0.068 -0.008)" fill="#fff"/>
    <path id="path-2" data-name="path" d="M86.921,8.35H81.892l-1.984,2.316a1.36,1.36,0,0,1-1.92,0L76,8.35H71.04l4.632,5.294a1.3,1.3,0,0,1-.067,1.919l-4.565,5.36H76l1.984-2.316a1.428,1.428,0,0,1,1.92.066l1.984,2.316h5.029l-4.631-5.36a1.357,1.357,0,0,1,0-1.919Z" transform="translate(-0.055 -0.006)" fill="#fff"/>
    <path id="path-3" data-name="path" d="M65.6,8.35H58.984a4.518,4.518,0,0,0-4.7,4.3v3.97a4.517,4.517,0,0,0,4.7,4.3h6.484a4.241,4.241,0,0,0,4.368-4.33v-4A4.1,4.1,0,0,0,65.6,8.35m-3.573,9.792H58.984a.443.443,0,0,1-.464-.4v-6.22a.453.453,0,0,1,.464-.464h6.087c.265,0,.464.134.464.4l-.067,6.28a.443.443,0,0,1-.463.4Z" transform="translate(-0.043 -0.006)" fill="#fff"/>
    <path id="path-4" data-name="path" d="M39.255,12.585v8.4H43.49v-3.9a.936.936,0,0,1,.992-.992h7.279V13.908H43.886a.442.442,0,0,1-.4-.463V11.592a.443.443,0,0,1,.4-.464h8.536V8.35h-9.2a4.087,4.087,0,0,0-3.97,4.235" transform="translate(-0.031 -0.006)" fill="#fff"/>
    <path id="path-5" data-name="path" d="M131.755,8.35H120.507V20.922h4.235v-9.4a.381.381,0,0,1,.4-.4h6.22a.428.428,0,0,1,.4.4v9.4h4.235V12.585a4.4,4.4,0,0,0-4.235-4.235" transform="translate(-0.094 -0.006)" fill="#fff"/>
    <path id="path-6" data-name="path" d="M149.3,8.283H138.055V20.855h4.235v-9.33a.427.427,0,0,1,.4-.4h6.22a.428.428,0,0,1,.4.4v9.4h4.235v-8.4A4.354,4.354,0,0,0,149.3,8.283" transform="translate(-0.107 -0.006)" fill="#fff"/>
    <path id="path-7" data-name="path" d="M114.265,8.35h-6.617a4.518,4.518,0,0,0-4.7,4.3v3.97a4.517,4.517,0,0,0,4.7,4.3h6.484a4.241,4.241,0,0,0,4.368-4.33v-4a4.1,4.1,0,0,0-4.235-4.245m-3.573,9.792h-3.044a.443.443,0,0,1-.464-.4v-6.22a.453.453,0,0,1,.464-.464h6.087c.265,0,.464.134.464.4l-.067,6.283a.443.443,0,0,1-.463.4Z" transform="translate(-0.08 -0.006)" fill="#fff"/>
    <path id="path-8" data-name="path" d="M156.626,8.477h1.49a1.493,1.493,0,0,1,.607.107.753.753,0,0,1,.454.755.835.835,0,0,1-.122.471.868.868,0,0,1-.34.294.672.672,0,0,1,.289.2.709.709,0,0,1,.108.4l.016.429a1.279,1.279,0,0,0,.031.273.267.267,0,0,0,.143.2v.072h-.545a.353.353,0,0,1-.035-.107,1.945,1.945,0,0,1-.023-.253l-.026-.534a.449.449,0,0,0-.233-.42.94.94,0,0,0-.388-.059h-.981v1.372h-.445Zm1.442,1.466a.837.837,0,0,0,.481-.122.5.5,0,0,0,.177-.441.472.472,0,0,0-.247-.466.8.8,0,0,0-.354-.065h-1.054V9.943Z" transform="translate(-0.123 -0.008)" fill="#fff"/>
    <circle id="path-9" data-name="path" cx="2.228" cy="2.228" r="2.228" transform="translate(155.418 7.84)" fill="none" stroke="#fff" stroke-width="0.249"/>
    <path id="path-10" data-name="path" d="M17.733,2.679v8.734H11.844V2.679H.066L0,31.86H11.778v-8.8H17.6l.066,8.734H29.445V2.679Z" transform="translate(0 -0.002)" fill="#e83434" fill-rule="evenodd"/>
    <path id="path-11" data-name="path" d="M26.47,28.884H20.647V22.994A2.948,2.948,0,0,0,17.8,20.216H11.846a3.023,3.023,0,0,0-2.977,2.779V28.95H2.98V5.593H8.869v8.734H22.036a5,5,0,0,1,4.434,4.5Z" transform="translate(-0.002 -0.004)" fill="#fff" fill-rule="evenodd"/>
    <path id="path-12" data-name="path" d="M31.888.822h1.624a1.642,1.642,0,0,1,.661.116.825.825,0,0,1,.494.824.9.9,0,0,1-.133.513.954.954,0,0,1-.37.321.742.742,0,0,1,.315.218.77.77,0,0,1,.117.44l.018.468a1.342,1.342,0,0,0,.034.3.294.294,0,0,0,.155.214v.078H34.21a.448.448,0,0,1-.039-.116,2.212,2.212,0,0,1-.025-.276l-.029-.582a.49.49,0,0,0-.253-.459,1.046,1.046,0,0,0-.422-.064h-1.07v1.5h-.485Zm1.572,1.6a.907.907,0,0,0,.524-.133.543.543,0,0,0,.193-.48.515.515,0,0,0-.27-.508.875.875,0,0,0-.386-.071H32.373V2.42Z" transform="translate(-0.025)" fill="#e83434"/>
    <path id="path-13" data-name="path" d="M35.562,2.564A2.429,2.429,0,1,1,33.133.135,2.429,2.429,0,0,1,35.562,2.564Z" transform="translate(-0.023)" fill="none" stroke="#e83434" stroke-width="0.272"/>
    <path id="path-14" data-name="path" d="M39.035,31.137V26h.716v2.111h2.814V26h.715v5.141h-.715V28.714H39.752v2.423Z" transform="translate(-0.031 -0.021)" fill="#fff"/>
    <path id="path-15" data-name="path" d="M43.359,31.214h-.87V28.791h-2.66v2.423h-.87V25.919h.87V28.03h2.66V25.919h.87Zm-.716-.154H43.2V26.073h-.563v2.111H39.674V26.073h-.563V31.06h.563V28.637h2.968Z" transform="translate(-0.031 -0.021)" fill="#fff"/>
    <path id="path-16" data-name="path" d="M44.26,28.633a2.708,2.708,0,0,1,.723-2,2.529,2.529,0,0,1,1.869-.724,2.7,2.7,0,0,1,1.351.341,2.268,2.268,0,0,1,.917.948,2.947,2.947,0,0,1,.316,1.38,2.9,2.9,0,0,1-.332,1.4,2.214,2.214,0,0,1-.941.935,2.814,2.814,0,0,1-1.315.317,2.66,2.66,0,0,1-1.366-.351,2.3,2.3,0,0,1-.912-.957,2.781,2.781,0,0,1-.31-1.283m.738.01a2,2,0,0,0,.526,1.464,1.9,1.9,0,0,0,2.652,0,2.117,2.117,0,0,0,.522-1.533,2.5,2.5,0,0,0-.224-1.1,1.646,1.646,0,0,0-.652-.726,1.841,1.841,0,0,0-.965-.258,1.887,1.887,0,0,0-1.31.5A2.146,2.146,0,0,0,45,28.643" transform="translate(-0.035 -0.02)" fill="#fff"/>
    <path id="path-17" data-name="path" d="M46.848,31.3a2.751,2.751,0,0,1-1.4-.361,2.4,2.4,0,0,1-.941-.989,2.867,2.867,0,0,1-.319-1.319,2.793,2.793,0,0,1,.746-2.058,2.609,2.609,0,0,1,1.923-.746,2.787,2.787,0,0,1,1.389.35,2.352,2.352,0,0,1,.948.98,3.035,3.035,0,0,1,.325,1.416,2.992,2.992,0,0,1-.342,1.436,2.287,2.287,0,0,1-.973.966,2.893,2.893,0,0,1-1.351.326m0-5.32a2.458,2.458,0,0,0-1.813.7,2.644,2.644,0,0,0-.7,1.949,2.723,2.723,0,0,0,.3,1.249,2.241,2.241,0,0,0,.882.925,2.6,2.6,0,0,0,1.327.341,2.748,2.748,0,0,0,1.28-.309,2.154,2.154,0,0,0,.909-.9,2.844,2.844,0,0,0,.323-1.362,2.89,2.89,0,0,0-.308-1.345,2.19,2.19,0,0,0-.887-.916,2.623,2.623,0,0,0-1.313-.331m-.007,4.738a1.858,1.858,0,0,1-1.375-.559,2.078,2.078,0,0,1-.549-1.518,2.228,2.228,0,0,1,.574-1.715,1.967,1.967,0,0,1,1.361-.516,1.933,1.933,0,0,1,1.005.269,1.742,1.742,0,0,1,.683.758,2.609,2.609,0,0,1,.231,1.129,2.2,2.2,0,0,1-.544,1.587,1.859,1.859,0,0,1-1.387.564m.011-4.153a1.814,1.814,0,0,0-1.257.477,2.086,2.086,0,0,0-.524,1.6,1.931,1.931,0,0,0,.5,1.41,1.824,1.824,0,0,0,2.541,0,2.05,2.05,0,0,0,.5-1.479,2.44,2.44,0,0,0-.217-1.062,1.59,1.59,0,0,0-.623-.693,1.777,1.777,0,0,0-.926-.247" transform="translate(-0.035 -0.02)" fill="#fff"/>
    <path id="path-18" data-name="path" d="M50.357,31.137V26h.735l2.843,4.036V26h.686v5.141h-.734L51.044,27.1v4.04Z" transform="translate(-0.039 -0.021)" fill="#fff"/>
    <path id="path-19" data-name="path" d="M54.7,31.214h-.851l-.023-.032-2.7-3.841v3.873h-.84V25.919h.852l.023.032,2.7,3.837V25.919h.84Zm-.771-.154h.618V26.073h-.533v4.2l-2.96-4.2h-.619V31.06h.534V26.853Z" transform="translate(-0.039 -0.021)" fill="#fff"/>
    <path id="path-20" data-name="path" d="M57.955,31.137V26h.716v2.111h2.814V26H62.2v5.141h-.715V28.714H58.671v2.423Z" transform="translate(-0.045 -0.021)" fill="#fff"/>
    <path id="path-21" data-name="path" d="M62.279,31.214h-.87V28.791h-2.66v2.423h-.87V25.919h.87V28.03h2.66V25.919h.87Zm-.716-.154h.563V26.073h-.563v2.111H58.594V26.073h-.563V31.06h.563V28.637h2.968Z" transform="translate(-0.045 -0.021)" fill="#fff"/>
    <path id="path-22" data-name="path" d="M62.8,31.137,64.881,26h.771l2.216,5.141h-.816l-.632-1.558H64.158l-.595,1.558Zm1.562-2.111H66.2L65.635,27.6q-.258-.649-.384-1.066a6.4,6.4,0,0,1-.292.982Z" transform="translate(-0.049 -0.021)" fill="#fff"/>
    <path id="path-23" data-name="path" d="M67.986,31.214H67l-.02-.048-.612-1.51H64.211l-.595,1.558h-.928l2.141-5.295H65.7ZM67.1,31.06h.646L65.6,26.073h-.667L62.917,31.06h.594L64.1,29.5h2.368l.02.048ZM66.313,29.1H64.252l.636-1.614a6.272,6.272,0,0,0,.288-.968l.062-.3.087.291c.084.278.213.634.383,1.059Zm-1.836-.154h1.609l-.524-1.319c-.121-.3-.222-.574-.3-.805a6.625,6.625,0,0,1-.232.72Z" transform="translate(-0.049 -0.021)" fill="#fff"/>
    <rect id="path-24" data-name="path" width="0.716" height="5.141" transform="translate(68.514 25.975)" fill="#fff"/>
    <path id="path-25" data-name="path" d="M69.36,31.213h-.87V25.918h.87Zm-.716-.154h.563V26.072h-.563Z" transform="translate(-0.053 -0.021)" fill="#fff"/>
    <path id="path-26" data-name="path" d="M73.891,31.137V26.6H72.107V26H76.4V26.6H74.607v4.534Z" transform="translate(-0.057 -0.021)" fill="#fff"/>
    <path id="path-27" data-name="path" d="M74.684,31.214h-.87V26.679H72.03v-.76h4.445v.76H74.684Zm-.716-.154h.563V26.526h1.791v-.453H72.184v.453h1.784Z" transform="translate(-0.057 -0.021)" fill="#fff"/>
    <path id="path-28" data-name="path" d="M77.152,31.137V26h3.914V26.6h-3.2v1.575h2.994v.6H77.868v1.75H81.19v.607Z" transform="translate(-0.06 -0.021)" fill="#fff"/>
    <path id="path-29" data-name="path" d="M81.268,31.214H77.075V25.919h4.068v.76h-3.2V28.1h2.993v.756H77.945v1.6h3.322Zm-4.039-.154h3.885v-.453H77.791V28.7h2.993v-.451H77.791V26.526h3.2v-.453h-3.76Z" transform="translate(-0.06 -0.021)" fill="#fff"/>
    <path id="path-30" data-name="path" d="M86.047,29.333l.716.172a2.285,2.285,0,0,1-.81,1.279,2.318,2.318,0,0,1-1.431.44,2.677,2.677,0,0,1-1.424-.339,2.136,2.136,0,0,1-.834-.98,3.343,3.343,0,0,1-.286-1.378,2.9,2.9,0,0,1,.323-1.4,2.156,2.156,0,0,1,.919-.908,2.8,2.8,0,0,1,1.313-.311A2.307,2.307,0,0,1,85.9,26.3a2.04,2.04,0,0,1,.772,1.105l-.705.158a1.584,1.584,0,0,0-.548-.817,1.505,1.505,0,0,0-.9-.256,1.814,1.814,0,0,0-1.043.285,1.5,1.5,0,0,0-.589.762,2.91,2.91,0,0,0-.17.987,3.006,3.006,0,0,0,.2,1.145,1.446,1.446,0,0,0,.627.73,1.819,1.819,0,0,0,.918.243,1.6,1.6,0,0,0,1.02-.33,1.673,1.673,0,0,0,.565-.979" transform="translate(-0.064 -0.02)" fill="#fff"/>
    <path id="path-31" data-name="path" d="M84.522,31.3a2.77,2.77,0,0,1-1.464-.35,2.228,2.228,0,0,1-.864-1.014,3.423,3.423,0,0,1-.293-1.41,3,3,0,0,1,.332-1.438,2.24,2.24,0,0,1,.952-.94,2.887,2.887,0,0,1,1.348-.319,2.391,2.391,0,0,1,1.411.407,2.122,2.122,0,0,1,.8,1.145l.024.079-.854.192-.022-.066a1.517,1.517,0,0,0-.519-.778,1.439,1.439,0,0,0-.856-.242,1.748,1.748,0,0,0-1,.271,1.434,1.434,0,0,0-.56.724,2.86,2.86,0,0,0-.166.961,2.944,2.944,0,0,0,.195,1.116,1.375,1.375,0,0,0,.594.692,1.748,1.748,0,0,0,.881.233,1.523,1.523,0,0,0,.971-.313,1.6,1.6,0,0,0,.538-.936l.017-.075.869.208-.021.077A2.357,2.357,0,0,1,86,30.846a2.4,2.4,0,0,1-1.477.456m.011-5.317a2.741,2.741,0,0,0-1.277.3,2.093,2.093,0,0,0-.887.877,2.834,2.834,0,0,0-.314,1.364,3.267,3.267,0,0,0,.28,1.346,2.072,2.072,0,0,0,.8.946,2.618,2.618,0,0,0,1.383.328,2.247,2.247,0,0,0,1.384-.425,2.17,2.17,0,0,0,.76-1.161l-.563-.135a1.712,1.712,0,0,1-.574.946,1.678,1.678,0,0,1-1.067.346,1.909,1.909,0,0,1-.957-.252,1.523,1.523,0,0,1-.659-.768,3.074,3.074,0,0,1-.207-1.175,2.989,2.989,0,0,1,.175-1.013,1.593,1.593,0,0,1,.618-.8,1.905,1.905,0,0,1,1.086-.3,1.585,1.585,0,0,1,.945.27,1.616,1.616,0,0,1,.553.789l.556-.125a1.946,1.946,0,0,0-.717-.984,2.237,2.237,0,0,0-1.321-.379" transform="translate(-0.064 -0.02)" fill="#fff"/>
    <path id="path-32" data-name="path" d="M87.672,31.137V26h.716v2.111H91.2V26h.715v5.141H91.2V28.714H88.388v2.423Z" transform="translate(-0.068 -0.021)" fill="#fff"/>
    <path id="path-33" data-name="path" d="M92,31.214h-.87V28.791H88.464v2.423H87.6V25.919h.869V28.03h2.661V25.919H92Zm-.716-.154h.563V26.073h-.563v2.111H88.311V26.073h-.563V31.06h.563V28.637h2.968Z" transform="translate(-0.068 -0.021)" fill="#fff"/>
    <path id="path-34" data-name="path" d="M93.107,31.137V26h.735l2.843,4.036V26h.686v5.141h-.734L93.794,27.1v4.04Z" transform="translate(-0.072 -0.021)" fill="#fff"/>
    <path id="path-35" data-name="path" d="M97.449,31.214H96.6l-.023-.032-2.7-3.841v3.873h-.84V25.919h.852l.023.032,2.7,3.837V25.919h.84Zm-.771-.154h.618V26.073h-.533v4.2l-2.96-4.2h-.619V31.06h.534V26.853Z" transform="translate(-0.072 -0.021)" fill="#fff"/>
    <path id="path-36" data-name="path" d="M98.362,28.633a2.708,2.708,0,0,1,.723-2,2.529,2.529,0,0,1,1.869-.724,2.7,2.7,0,0,1,1.351.341,2.268,2.268,0,0,1,.917.948,2.947,2.947,0,0,1,.316,1.38,2.9,2.9,0,0,1-.332,1.4,2.214,2.214,0,0,1-.941.935,2.814,2.814,0,0,1-1.315.317,2.66,2.66,0,0,1-1.366-.351,2.3,2.3,0,0,1-.912-.957,2.781,2.781,0,0,1-.31-1.283m.738.01a2,2,0,0,0,.526,1.464,1.9,1.9,0,0,0,2.652,0,2.117,2.117,0,0,0,.522-1.533,2.5,2.5,0,0,0-.224-1.1,1.646,1.646,0,0,0-.652-.726,1.841,1.841,0,0,0-.965-.258,1.887,1.887,0,0,0-1.31.5,2.146,2.146,0,0,0-.548,1.657" transform="translate(-0.076 -0.02)" fill="#fff"/>
    <path id="path-37" data-name="path" d="M100.95,31.3a2.751,2.751,0,0,1-1.4-.361,2.4,2.4,0,0,1-.941-.989,2.867,2.867,0,0,1-.319-1.319,2.793,2.793,0,0,1,.746-2.058,2.609,2.609,0,0,1,1.923-.746,2.787,2.787,0,0,1,1.389.35,2.352,2.352,0,0,1,.948.98,3.035,3.035,0,0,1,.325,1.416,2.992,2.992,0,0,1-.342,1.436,2.287,2.287,0,0,1-.973.966,2.893,2.893,0,0,1-1.351.326m0-5.32a2.462,2.462,0,0,0-1.814.7,2.647,2.647,0,0,0-.7,1.949,2.723,2.723,0,0,0,.3,1.249,2.241,2.241,0,0,0,.882.925,2.6,2.6,0,0,0,1.327.341,2.748,2.748,0,0,0,1.28-.309,2.154,2.154,0,0,0,.909-.9,2.844,2.844,0,0,0,.323-1.362,2.89,2.89,0,0,0-.308-1.345,2.19,2.19,0,0,0-.887-.916,2.623,2.623,0,0,0-1.313-.331m-.007,4.738a1.858,1.858,0,0,1-1.375-.559,2.078,2.078,0,0,1-.549-1.518,2.228,2.228,0,0,1,.574-1.715,1.967,1.967,0,0,1,1.361-.516,1.933,1.933,0,0,1,1.005.269,1.742,1.742,0,0,1,.683.758,2.609,2.609,0,0,1,.231,1.129,2.2,2.2,0,0,1-.544,1.587,1.859,1.859,0,0,1-1.387.564m.011-4.153a1.814,1.814,0,0,0-1.257.477,2.086,2.086,0,0,0-.524,1.6,1.931,1.931,0,0,0,.5,1.41,1.824,1.824,0,0,0,2.541,0,2.05,2.05,0,0,0,.5-1.479,2.44,2.44,0,0,0-.217-1.062,1.59,1.59,0,0,0-.623-.693,1.777,1.777,0,0,0-.926-.247" transform="translate(-0.076 -0.02)" fill="#fff"/>
    <path id="path-38" data-name="path" d="M104.437,31.137V26h.716V30.53h2.666v.607Z" transform="translate(-0.082 -0.021)" fill="#fff"/>
    <path id="path-39" data-name="path" d="M107.9,31.214H104.36V25.919h.87v4.534H107.9Zm-3.382-.154h3.228v-.453h-2.666V26.073h-.563Z" transform="translate(-0.082 -0.021)" fill="#fff"/>
    <path id="path-40" data-name="path" d="M108.457,28.633a2.708,2.708,0,0,1,.723-2,2.529,2.529,0,0,1,1.869-.724,2.7,2.7,0,0,1,1.351.341,2.268,2.268,0,0,1,.917.948,2.947,2.947,0,0,1,.316,1.38,2.9,2.9,0,0,1-.332,1.4,2.214,2.214,0,0,1-.941.935,2.814,2.814,0,0,1-1.315.317,2.66,2.66,0,0,1-1.366-.351,2.3,2.3,0,0,1-.912-.957,2.781,2.781,0,0,1-.31-1.283m.738.01a2,2,0,0,0,.526,1.464,1.9,1.9,0,0,0,2.652,0,2.117,2.117,0,0,0,.522-1.533,2.5,2.5,0,0,0-.224-1.1,1.646,1.646,0,0,0-.652-.726,1.841,1.841,0,0,0-.965-.258,1.887,1.887,0,0,0-1.31.5,2.146,2.146,0,0,0-.548,1.657" transform="translate(-0.084 -0.02)" fill="#fff"/>
    <path id="path-41" data-name="path" d="M111.045,31.3a2.751,2.751,0,0,1-1.4-.361,2.4,2.4,0,0,1-.941-.989,2.867,2.867,0,0,1-.319-1.319,2.793,2.793,0,0,1,.746-2.058,2.609,2.609,0,0,1,1.923-.746,2.787,2.787,0,0,1,1.389.35,2.352,2.352,0,0,1,.948.98,3.048,3.048,0,0,1,.325,1.416,2.992,2.992,0,0,1-.342,1.436,2.287,2.287,0,0,1-.973.966,2.893,2.893,0,0,1-1.351.326m0-5.32a2.458,2.458,0,0,0-1.813.7,2.644,2.644,0,0,0-.7,1.949,2.723,2.723,0,0,0,.3,1.249,2.241,2.241,0,0,0,.882.925,2.6,2.6,0,0,0,1.327.341,2.751,2.751,0,0,0,1.28-.309,2.154,2.154,0,0,0,.909-.9,2.844,2.844,0,0,0,.323-1.362,2.89,2.89,0,0,0-.308-1.345,2.19,2.19,0,0,0-.887-.916,2.623,2.623,0,0,0-1.313-.331m-.007,4.738a1.858,1.858,0,0,1-1.375-.559,2.078,2.078,0,0,1-.549-1.518,2.228,2.228,0,0,1,.574-1.715,1.967,1.967,0,0,1,1.361-.516,1.933,1.933,0,0,1,1.005.269,1.742,1.742,0,0,1,.683.758,2.609,2.609,0,0,1,.231,1.129,2.2,2.2,0,0,1-.544,1.587,1.859,1.859,0,0,1-1.387.564m.011-4.153a1.814,1.814,0,0,0-1.257.477,2.086,2.086,0,0,0-.524,1.6,1.931,1.931,0,0,0,.5,1.41,1.824,1.824,0,0,0,2.541,0,2.05,2.05,0,0,0,.5-1.479,2.44,2.44,0,0,0-.217-1.062,1.59,1.59,0,0,0-.623-.693,1.777,1.777,0,0,0-.926-.247" transform="translate(-0.084 -0.02)" fill="#fff"/>
    <path id="path-42" data-name="path" d="M117.095,29.119v-.6l2.292,0V30.42a4.08,4.08,0,0,1-1.088.6,3.375,3.375,0,0,1-1.152.2,3.216,3.216,0,0,1-1.45-.324,2.216,2.216,0,0,1-.984-.938,2.846,2.846,0,0,1-.332-1.372,3.056,3.056,0,0,1,.33-1.4,2.134,2.134,0,0,1,.951-.965,3.105,3.105,0,0,1,1.429-.317,2.979,2.979,0,0,1,1.062.181,1.77,1.77,0,0,1,.743.5,2.186,2.186,0,0,1,.411.841l-.646.168a1.866,1.866,0,0,0-.3-.617,1.236,1.236,0,0,0-.518-.36,1.98,1.98,0,0,0-.745-.135,2.294,2.294,0,0,0-.849.142,1.606,1.606,0,0,0-.579.374,1.781,1.781,0,0,0-.341.509,2.57,2.57,0,0,0-.207,1.034,2.406,2.406,0,0,0,.249,1.15,1.565,1.565,0,0,0,.725.687,2.341,2.341,0,0,0,1.012.225,2.527,2.527,0,0,0,.908-.17,2.384,2.384,0,0,0,.672-.364v-.957Z" transform="translate(-0.09 -0.02)" fill="#fff"/>
    <path id="path-43" data-name="path" d="M117.147,31.3a3.3,3.3,0,0,1-1.484-.333,2.291,2.291,0,0,1-1.018-.97,2.914,2.914,0,0,1-.341-1.408,3.136,3.136,0,0,1,.339-1.436,2.211,2.211,0,0,1,.984-1,3.189,3.189,0,0,1,1.464-.325,3.037,3.037,0,0,1,1.089.186,1.845,1.845,0,0,1,.775.525,2.275,2.275,0,0,1,.426.872l.021.075-.793.206-.022-.07a1.8,1.8,0,0,0-.29-.592,1.169,1.169,0,0,0-.485-.336,1.926,1.926,0,0,0-.717-.13,2.226,2.226,0,0,0-.821.137,1.512,1.512,0,0,0-.55.355,1.71,1.71,0,0,0-.328.487,2.515,2.515,0,0,0-.2,1,2.338,2.338,0,0,0,.24,1.113,1.486,1.486,0,0,0,.69.654,2.368,2.368,0,0,0,1.86.052,2.423,2.423,0,0,0,.624-.328V29.2h-1.592V28.44l2.446,0v2.023l-.03.024a4.238,4.238,0,0,1-1.109.613,3.478,3.478,0,0,1-1.178.206m-.056-5.317a3.049,3.049,0,0,0-1.394.308,2.071,2.071,0,0,0-.917.932,2.982,2.982,0,0,0-.322,1.366,2.767,2.767,0,0,0,.323,1.334,2.135,2.135,0,0,0,.95.906,3.152,3.152,0,0,0,1.416.317,3.357,3.357,0,0,0,1.126-.2,4.044,4.044,0,0,0,1.037-.569V28.591l-2.138,0v.45h1.592v1.07l-.028.023a2.433,2.433,0,0,1-.693.376,2.528,2.528,0,0,1-1.981-.056,1.645,1.645,0,0,1-.76-.72,2.5,2.5,0,0,1-.258-1.187,2.664,2.664,0,0,1,.213-1.065,1.852,1.852,0,0,1,.356-.531,1.669,1.669,0,0,1,.606-.393,2.385,2.385,0,0,1,.878-.147,2.082,2.082,0,0,1,.774.14,1.331,1.331,0,0,1,.549.383,1.868,1.868,0,0,1,.294.573l.5-.13a2.047,2.047,0,0,0-.375-.737,1.678,1.678,0,0,0-.711-.48,2.868,2.868,0,0,0-1.034-.177" transform="translate(-0.09 -0.02)" fill="#fff"/>
    <path id="path-44" data-name="path" d="M121.973,31.137V28.96L119.887,26h.871l1.067,1.55q.3.435.551.87c.162-.27.359-.572.591-.908L124.016,26h.833L122.69,28.96v2.177Z" transform="translate(-0.094 -0.021)" fill="#fff"/>
    <path id="path-45" data-name="path" d="M122.767,31.214h-.87v-2.23l-2.158-3.065H120.8l1.089,1.583c.172.253.336.509.489.764.147-.239.32-.5.527-.8l1.071-1.545H125l-2.234,3.066Zm-.716-.154h.563V28.934l.014-.02,2.07-2.841h-.642l-1.026,1.479c-.236.344-.428.64-.588.9l-.067.111-.066-.112c-.169-.289-.353-.58-.548-.865l-1.043-1.517h-.682l2.014,2.862Z" transform="translate(-0.094 -0.021)" fill="#fff"/>
    <path id="path-46" data-name="path" d="M129.995,29.119v-.6l2.292,0V30.42a4.08,4.08,0,0,1-1.088.6,3.375,3.375,0,0,1-1.152.2,3.216,3.216,0,0,1-1.45-.324,2.216,2.216,0,0,1-.984-.938,2.846,2.846,0,0,1-.332-1.372,3.056,3.056,0,0,1,.33-1.4,2.134,2.134,0,0,1,.951-.965,3.105,3.105,0,0,1,1.429-.317,2.979,2.979,0,0,1,1.062.181,1.77,1.77,0,0,1,.743.5,2.186,2.186,0,0,1,.411.841l-.646.168a1.866,1.866,0,0,0-.3-.617,1.236,1.236,0,0,0-.518-.36,1.98,1.98,0,0,0-.745-.135,2.294,2.294,0,0,0-.849.142,1.606,1.606,0,0,0-.579.374,1.781,1.781,0,0,0-.341.509,2.57,2.57,0,0,0-.207,1.034,2.406,2.406,0,0,0,.249,1.15,1.565,1.565,0,0,0,.725.687,2.341,2.341,0,0,0,1.012.225,2.528,2.528,0,0,0,.908-.17,2.4,2.4,0,0,0,.672-.364v-.957Z" transform="translate(-0.1 -0.02)" fill="#fff"/>
    <path id="path-47" data-name="path" d="M130.047,31.3a3.3,3.3,0,0,1-1.484-.333,2.291,2.291,0,0,1-1.018-.97,2.914,2.914,0,0,1-.341-1.408,3.136,3.136,0,0,1,.339-1.436,2.211,2.211,0,0,1,.984-1,3.19,3.19,0,0,1,1.464-.325,3.037,3.037,0,0,1,1.089.186,1.845,1.845,0,0,1,.775.525,2.275,2.275,0,0,1,.426.872l.021.075-.793.206-.022-.07a1.8,1.8,0,0,0-.29-.592,1.169,1.169,0,0,0-.485-.336,1.926,1.926,0,0,0-.717-.13,2.226,2.226,0,0,0-.821.137,1.511,1.511,0,0,0-.55.355,1.71,1.71,0,0,0-.328.487,2.515,2.515,0,0,0-.2,1,2.338,2.338,0,0,0,.24,1.113,1.486,1.486,0,0,0,.69.654,2.368,2.368,0,0,0,1.86.052,2.423,2.423,0,0,0,.624-.328V29.2h-1.592V28.44l2.446,0v2.023l-.03.024a4.238,4.238,0,0,1-1.109.613,3.478,3.478,0,0,1-1.178.206m-.056-5.317a3.049,3.049,0,0,0-1.394.308,2.071,2.071,0,0,0-.917.932,2.982,2.982,0,0,0-.322,1.366,2.767,2.767,0,0,0,.323,1.334,2.135,2.135,0,0,0,.95.906,3.152,3.152,0,0,0,1.416.317,3.357,3.357,0,0,0,1.126-.2,4.044,4.044,0,0,0,1.037-.569V28.591l-2.138,0v.45h1.592v1.07l-.028.023a2.433,2.433,0,0,1-.693.376,2.528,2.528,0,0,1-1.981-.056,1.645,1.645,0,0,1-.76-.72,2.5,2.5,0,0,1-.258-1.187,2.664,2.664,0,0,1,.213-1.065,1.852,1.852,0,0,1,.356-.531,1.669,1.669,0,0,1,.606-.393,2.385,2.385,0,0,1,.878-.147,2.082,2.082,0,0,1,.774.14,1.331,1.331,0,0,1,.549.383,1.868,1.868,0,0,1,.294.573l.5-.13a2.047,2.047,0,0,0-.375-.737,1.678,1.678,0,0,0-.711-.48,2.868,2.868,0,0,0-1.034-.177" transform="translate(-0.1 -0.02)" fill="#fff"/>
    <path id="path-48" data-name="path" d="M133.36,31.136V26h2.4a3.339,3.339,0,0,1,1.1.138,1.185,1.185,0,0,1,.6.489,1.4,1.4,0,0,1,.226.775,1.26,1.26,0,0,1-.373.922,1.935,1.935,0,0,1-1.153.478,1.872,1.872,0,0,1,.433.256,3.563,3.563,0,0,1,.595.683l.941,1.4h-.9l-.715-1.069q-.315-.463-.518-.708a1.589,1.589,0,0,0-.364-.344,1.1,1.1,0,0,0-.327-.137,2.311,2.311,0,0,0-.4-.024h-.83v2.282Zm.716-2.872h1.539a2.437,2.437,0,0,0,.768-.1.813.813,0,0,0,.421-.309.8.8,0,0,0,.144-.462.752.752,0,0,0-.278-.6,1.353,1.353,0,0,0-.881-.235h-1.713Z" transform="translate(-0.103 -0.021)" fill="#fff"/>
    <path id="path-49" data-name="path" d="M138.275,31.213h-1.087l-.738-1.1c-.2-.3-.377-.538-.513-.7a1.533,1.533,0,0,0-.345-.327,1.034,1.034,0,0,0-.3-.128,2.245,2.245,0,0,0-.382-.022h-.753v2.282h-.87V25.919h2.477a3.4,3.4,0,0,1,1.126.142,1.266,1.266,0,0,1,.64.521,1.482,1.482,0,0,1,.238.816,1.339,1.339,0,0,1-.395.977,1.843,1.843,0,0,1-.961.46,1.526,1.526,0,0,1,.236.16,3.692,3.692,0,0,1,.609.7Zm-1-.154h.714l-.86-1.278a3.507,3.507,0,0,0-.582-.669,1.815,1.815,0,0,0-.414-.244l-.244-.113.267-.034a1.869,1.869,0,0,0,1.107-.455,1.191,1.191,0,0,0,.351-.868,1.33,1.33,0,0,0-.214-.733,1.106,1.106,0,0,0-.564-.459,3.311,3.311,0,0,0-1.073-.134h-2.323v4.987H134V28.777h.907a2.28,2.28,0,0,1,.414.026,1.194,1.194,0,0,1,.353.146,1.658,1.658,0,0,1,.383.361c.139.168.314.409.522.714Zm-1.656-2.718H134V26.487h1.79a1.434,1.434,0,0,1,.931.253.828.828,0,0,1,.3.658.886.886,0,0,1-.157.5.9.9,0,0,1-.459.339,2.546,2.546,0,0,1-.794.1m-1.462-.154h1.462a2.377,2.377,0,0,0,.743-.092.733.733,0,0,0,.514-.7.672.672,0,0,0-.252-.541,1.291,1.291,0,0,0-.831-.217h-1.636Z" transform="translate(-0.103 -0.021)" fill="#fff"/>
    <path id="path-50" data-name="path" d="M138.6,28.633a2.708,2.708,0,0,1,.723-2,2.529,2.529,0,0,1,1.869-.724,2.7,2.7,0,0,1,1.351.341,2.268,2.268,0,0,1,.917.948,2.947,2.947,0,0,1,.316,1.38,2.9,2.9,0,0,1-.332,1.4,2.214,2.214,0,0,1-.941.935,2.814,2.814,0,0,1-1.315.317,2.66,2.66,0,0,1-1.366-.351,2.3,2.3,0,0,1-.912-.957,2.781,2.781,0,0,1-.31-1.283m.738.01a2,2,0,0,0,.526,1.464,1.9,1.9,0,0,0,2.652,0,2.117,2.117,0,0,0,.522-1.533,2.5,2.5,0,0,0-.224-1.1,1.646,1.646,0,0,0-.652-.726,1.841,1.841,0,0,0-.965-.258,1.887,1.887,0,0,0-1.31.5,2.146,2.146,0,0,0-.548,1.657" transform="translate(-0.107 -0.02)" fill="#fff"/>
    <path id="path-51" data-name="path" d="M141.183,31.3a2.751,2.751,0,0,1-1.4-.361,2.4,2.4,0,0,1-.941-.989,2.867,2.867,0,0,1-.319-1.319,2.793,2.793,0,0,1,.746-2.058,2.609,2.609,0,0,1,1.923-.746,2.787,2.787,0,0,1,1.389.35,2.353,2.353,0,0,1,.948.98,3.035,3.035,0,0,1,.325,1.416,2.992,2.992,0,0,1-.342,1.436,2.287,2.287,0,0,1-.973.966,2.893,2.893,0,0,1-1.351.326m0-5.32a2.462,2.462,0,0,0-1.814.7,2.647,2.647,0,0,0-.7,1.949,2.723,2.723,0,0,0,.3,1.249,2.241,2.241,0,0,0,.882.925,2.6,2.6,0,0,0,1.327.341,2.748,2.748,0,0,0,1.28-.309,2.154,2.154,0,0,0,.909-.9,2.845,2.845,0,0,0,.323-1.362,2.89,2.89,0,0,0-.308-1.345,2.19,2.19,0,0,0-.887-.916,2.623,2.623,0,0,0-1.313-.331m-.007,4.738a1.858,1.858,0,0,1-1.375-.559,2.078,2.078,0,0,1-.549-1.518,2.228,2.228,0,0,1,.574-1.715,1.967,1.967,0,0,1,1.361-.516,1.933,1.933,0,0,1,1.005.269,1.742,1.742,0,0,1,.683.758,2.609,2.609,0,0,1,.231,1.129,2.2,2.2,0,0,1-.544,1.587,1.859,1.859,0,0,1-1.387.564m.011-4.153a1.814,1.814,0,0,0-1.257.477,2.086,2.086,0,0,0-.524,1.6,1.931,1.931,0,0,0,.5,1.41,1.824,1.824,0,0,0,2.541,0,2.05,2.05,0,0,0,.5-1.479,2.44,2.44,0,0,0-.217-1.062,1.589,1.589,0,0,0-.623-.693,1.777,1.777,0,0,0-.926-.247" transform="translate(-0.107 -0.02)" fill="#fff"/>
    <path id="path-52" data-name="path" d="M148.252,26h.716v2.971a3.364,3.364,0,0,1-.185,1.231,1.522,1.522,0,0,1-.666.74,2.457,2.457,0,0,1-1.265.287,2.717,2.717,0,0,1-1.244-.25,1.448,1.448,0,0,1-.69-.72,3.274,3.274,0,0,1-.207-1.288V26h.716v2.967a2.769,2.769,0,0,0,.131.987.97.97,0,0,0,.451.49,1.639,1.639,0,0,0,.781.172,1.544,1.544,0,0,0,1.126-.341,1.893,1.893,0,0,0,.336-1.308Z" transform="translate(-0.113 -0.021)" fill="#fff"/>
    <path id="path-53" data-name="path" d="M146.852,31.3a2.8,2.8,0,0,1-1.279-.258,1.524,1.524,0,0,1-.725-.758,3.362,3.362,0,0,1-.214-1.319V25.919h.87v3.044a2.712,2.712,0,0,0,.125.958.9.9,0,0,0,.416.451,1.567,1.567,0,0,0,.744.163,1.481,1.481,0,0,0,1.072-.319,1.831,1.831,0,0,0,.314-1.253V25.919h.869v3.048a3.46,3.46,0,0,1-.189,1.26,1.612,1.612,0,0,1-.7.778,2.545,2.545,0,0,1-1.3.3m-2.064-5.229v2.894a3.241,3.241,0,0,0,.2,1.257,1.384,1.384,0,0,0,.656.683,2.645,2.645,0,0,0,1.208.241,2.392,2.392,0,0,0,1.225-.276,1.454,1.454,0,0,0,.635-.7,3.3,3.3,0,0,0,.179-1.2V26.073h-.562v2.89a1.934,1.934,0,0,1-.358,1.362,1.625,1.625,0,0,1-1.182.364,1.709,1.709,0,0,1-.817-.182,1.039,1.039,0,0,1-.485-.527,2.8,2.8,0,0,1-.137-1.017v-2.89Z" transform="translate(-0.113 -0.021)" fill="#fff"/>
    <path id="path-54" data-name="path" d="M150.165,31.137V26h2.042a5.16,5.16,0,0,1,.823.049,1.686,1.686,0,0,1,.668.24,1.291,1.291,0,0,1,.434.5,1.61,1.61,0,0,1-.275,1.813,2.186,2.186,0,0,1-1.588.454h-1.389v2.09Zm.716-2.7h1.4a1.542,1.542,0,0,0,.986-.246.855.855,0,0,0,.291-.691.894.894,0,0,0-.172-.552.8.8,0,0,0-.452-.3,3.267,3.267,0,0,0-.668-.045h-1.385Z" transform="translate(-0.117 -0.021)" fill="#fff"/>
    <path id="path-55" data-name="path" d="M150.958,31.213h-.869V25.919h2.118a5.3,5.3,0,0,1,.836.049,1.765,1.765,0,0,1,.7.253,1.359,1.359,0,0,1,.461.525,1.6,1.6,0,0,1,.172.737,1.62,1.62,0,0,1-.461,1.163,2.258,2.258,0,0,1-1.643.477h-1.312Zm-.716-.153h.563V28.97h1.466a2.121,2.121,0,0,0,1.532-.431,1.534,1.534,0,0,0,.263-1.724,1.209,1.209,0,0,0-.408-.466,1.615,1.615,0,0,0-.639-.229,5.124,5.124,0,0,0-.811-.048h-1.965Zm2.039-2.543H150.8V26.526h1.462a3.25,3.25,0,0,1,.686.047.885.885,0,0,1,.5.333.972.972,0,0,1,.187.6.93.93,0,0,1-.319.75,1.618,1.618,0,0,1-1.035.264m-1.323-.154h1.323a1.483,1.483,0,0,0,.936-.228.774.774,0,0,0,.264-.633.824.824,0,0,0-.156-.5.723.723,0,0,0-.411-.276,3.212,3.212,0,0,0-.648-.043h-1.308Z" transform="translate(-0.117 -0.021)" fill="#fff"/>
    <rect id="boundary" width="160" height="31.857" transform="translate(0)" fill="none"/>
  </g>
</svg>
